<?xml version="1.0" encoding="UTF-8" standalone="no"?>
<!-- Created with Inkscape (http://www.inkscape.org/) -->

<svg
   width="210mm"
   height="297mm"
   viewBox="0 0 210 297"
   version="1.1"
   id="svg1"
   xml:space="preserve"
   inkscape:version="1.3.2 (091e20e, 2023-11-25, custom)"
   sodipodi:docname="Sol-poconublado-Minimnalista.svg"
   xmlns:inkscape="http://www.inkscape.org/namespaces/inkscape"
   xmlns:sodipodi="http://sodipodi.sourceforge.net/DTD/sodipodi-0.dtd"
   xmlns:xlink="http://www.w3.org/1999/xlink"
   xmlns="http://www.w3.org/2000/svg"
   xmlns:svg="http://www.w3.org/2000/svg"><sodipodi:namedview
     id="namedview1"
     pagecolor="#ffffff"
     bordercolor="#999999"
     borderopacity="1"
     inkscape:showpageshadow="2"
     inkscape:pageopacity="0"
     inkscape:pagecheckerboard="0"
     inkscape:deskcolor="#d1d1d1"
     inkscape:document-units="mm"
     inkscape:zoom="0.73139029"
     inkscape:cx="119.63517"
     inkscape:cy="479.2243"
     inkscape:window-width="1920"
     inkscape:window-height="1017"
     inkscape:window-x="-8"
     inkscape:window-y="-8"
     inkscape:window-maximized="1"
     inkscape:current-layer="layer1" /><defs
     id="defs1"><linearGradient
       id="linearGradient24"
       inkscape:collect="always"><stop
         style="stop-color:#4c6cc5;stop-opacity:0;"
         offset="0"
         id="stop24" /><stop
         style="stop-color:#4c6cc5;stop-opacity:0;"
         offset="1"
         id="stop25" /></linearGradient><linearGradient
       id="linearGradient22"
       inkscape:collect="always"><stop
         style="stop-color:#696969;stop-opacity:0.75213677;"
         offset="0.74575657"
         id="stop22" /><stop
         style="stop-color:#f7b016;stop-opacity:1;"
         offset="1"
         id="stop23" /></linearGradient><linearGradient
       inkscape:collect="always"
       xlink:href="#linearGradient22"
       id="linearGradient23"
       x1="200.71425"
       y1="189.38531"
       x2="104.81345"
       y2="143.59953"
       gradientUnits="userSpaceOnUse" /><radialGradient
       inkscape:collect="always"
       xlink:href="#linearGradient24"
       id="radialGradient25"
       cx="4.7639842"
       cy="319.41745"
       fx="4.7639842"
       fy="319.41745"
       r="102.34826"
       gradientTransform="matrix(0.98555817,0.068993,-0.01079015,0.15413541,93.892663,126.97371)"
       gradientUnits="userSpaceOnUse" /></defs><g
     inkscape:label="Capa 1"
     inkscape:groupmode="layer"
     id="layer1"><path
       style="fill:url(#radialGradient25);stroke-width:2.8;stroke-dasharray:none;stroke:url(#linearGradient23);stroke-opacity:1;fill-opacity:1"
       d="m 93.252348,221.59263 c -2.026458,-0.57218 -2.145674,-1.34898 -2.295219,-14.95537 -0.154036,-14.01493 -0.08081,-14.53805 2.29129,-16.36885 2.673786,-2.06364 8.005261,-1.03481 9.972431,1.92441 l 1.16871,1.75809 -0.21002,12.89989 c -0.17525,10.76427 -0.32695,13.04791 -0.91634,13.79395 -0.71501,0.90505 -7.789979,1.57494 -10.010852,0.94788 z m 8.879052,-2.35753 c 1.88429,-2.38449 0.93917,-25.70073 -1.09577,-27.03274 -6.307424,-4.1286 -8.908711,-0.85391 -8.754938,11.02136 0.187335,14.46707 0.310745,15.89377 1.426954,16.49647 1.406496,0.75943 7.727954,0.39541 8.423754,-0.48509 z M 26.619633,187.41404 c -4.877649,-4.91586 -4.310687,-6.66226 4.638698,-14.28847 1.719295,-1.46509 4.331729,-3.78645 5.80541,-5.15856 8.093201,-7.53544 11.75648,-7.69646 15.964877,-0.70174 2.080174,3.45742 0.614141,5.54351 -10.879429,15.48082 -9.681252,8.37039 -11.356312,8.87388 -15.529556,4.66795 z m 12.991822,-4.83049 c 11.60872,-9.91436 13.281822,-11.8593 12.124704,-14.09465 -3.229137,-6.23816 -5.830414,-6.09483 -13.55844,0.74708 -15.134095,13.39878 -14.411618,12.35337 -11.180934,16.17849 3.554535,4.20855 4.663576,3.95966 12.61467,-2.83092 z m 61.981655,5.53883 c -1.10527,-0.55301 -3.272305,-2.18351 -4.815648,-3.62333 -1.977252,-1.84463 -3.362229,-2.69703 -4.688985,-2.88588 -10.218819,-1.45454 -16.579235,-3.66303 -24.06956,-8.35754 C 33.078763,151.35712 31.729281,96.544603 65.534819,72.357949 92.522614,53.049143 132.0685,62.958746 147.06769,92.788863 c 2.83346,5.63511 6.7741,16.296467 6.7741,18.327217 0,4.85609 5.60537,7.61787 10.28716,5.06851 2.65033,-1.44317 23.75654,-1.45322 25.81118,-0.0123 2.28585,1.60309 2.98767,7.16806 1.24415,9.86525 -1.40532,2.17398 -3.30836,2.61606 -11.32978,2.63195 -3.74561,0.007 -6.80831,0.20426 -6.80601,0.43743 0.006,0.626 2.59371,6.2287 3.03668,6.57523 0.20902,0.16352 3.01301,0.68572 6.23107,1.16044 10.79281,1.59213 20.1138,9.2376 21.6066,17.72265 2.72663,15.49809 -1.65735,26.14869 -13.46231,32.70581 l -2.9027,1.61232 -41.97758,0.12224 c -39.31962,0.11449 -42.10482,0.0586 -43.98714,-0.88325 z m 90.027,-3.76109 c 19.09084,-12.34444 14.00347,-42.65496 -7.63484,-45.48835 -9.17243,-1.20106 -9.20042,-1.21654 -11.03328,-6.09901 -0.49749,-1.32526 -1.08216,-2.54852 -1.29925,-2.71835 -0.21709,-0.16983 -0.39472,-0.92969 -0.39472,-1.68858 v -1.3798 h 8.43891 8.43891 l 1.38563,-1.53903 c 2.12387,-2.35899 1.67152,-6.87686 -0.79713,-7.96133 -3.37045,-1.48063 -21.7096,-1.12933 -24.1756,0.4631 -2.45088,1.58268 -4.86732,1.40967 -8.72843,-0.62494 l -3.31823,-1.74853 v -2.77462 c 0,-2.89912 -2.97687,-11.77101 -5.53815,-16.505207 -0.63822,-1.17966 -1.1604,-2.27776 -1.1604,-2.44023 0,-0.54574 -4.66364,-7.25414 -7.34694,-10.568171 -6.0489,-7.470741 -15.5105,-13.704146 -26.81566,-17.666446 -27.226593,-9.542542 -61.437635,12.353615 -68.17668,43.635244 -6.568674,30.4908 14.631876,65.50174 42.052335,69.44593 8.173861,1.17574 10.618093,2.16391 13.312867,5.38219 2.903788,3.4679 1.590308,3.37762 47.043048,3.23357 l 41.37669,-0.13113 z m -86.95157,-8.47251 c -1.64888,-1.14362 -3.26959,-6.76156 -2.95849,-10.25514 0.60342,-6.77643 8.16137,-8.77926 9.63505,-2.55326 0.58903,2.48855 2.89087,3.39453 5.92781,2.33312 2.15046,-0.75159 4.05461,-5.019 3.08706,-6.91846 -1.11273,-2.18447 -1.21848,-13.16292 -0.14477,-15.03051 0.47364,-0.82383 1.29589,-2.64751 1.82723,-4.05262 8.67335,-22.93623 45.19646,-14.09469 45.19646,10.9412 0,6.86277 8.00273,9.0482 9.85609,2.69155 1.36764,-4.69075 4.41795,-5.38938 9.08022,-2.07969 8.62534,6.12301 8.97144,17.68888 0.71684,23.95428 l -2.01363,1.52838 -39.52145,0.12527 c -33.58698,0.10646 -39.69667,0.004 -40.68842,-0.68412 z m 78.99732,-1.38468 c 5.62993,-2.04379 9.23382,-10.81328 6.74621,-16.4158 -3.03331,-6.8315 -12.00893,-9.68345 -12.00893,-3.81576 0,2.89526 -3.83198,4.77188 -7.63558,3.73935 -3.31744,-0.90056 -4.42181,-2.28431 -4.42181,-5.54043 0,-8.4108 -5.53863,-18.13194 -12.84782,-22.54987 l -3.45198,-2.08649 h -6.69855 -6.69855 l -3.34928,2.08626 c -3.06114,1.90679 -9.37797,7.88219 -9.37797,8.87109 0,0.22792 -0.69066,1.86619 -1.5348,3.64062 -1.74622,3.67065 -2.2017,11.0146 -0.88272,14.23266 1.35657,3.30977 -0.24531,8.85684 -2.87491,9.95535 -4.35817,1.82061 -7.83634,0.61616 -8.81165,-3.05137 -0.77489,-2.91386 -5.32399,-2.99257 -6.36158,-0.11006 -1.11636,3.10137 0.34955,10.00665 2.3407,11.02601 1.3008,0.66595 76.03682,0.68365 77.86922,0.0184 z M 82.16731,166.24779 C 52.260341,152.89187 42.996167,117.66492 62.760654,92.454133 85.526488,63.414951 124.86659,70.69516 140.13947,106.77372 c 3.08592,7.28975 3.07071,7.34873 -2.15091,8.34117 -13.86836,2.63586 -27.91062,16.3104 -27.91062,27.17972 0,2.75178 -0.92249,4.47676 -2.39407,4.47676 -6.35415,0 -15.837372,9.75757 -16.161041,16.62857 -0.232985,4.94595 -2.86401,5.74684 -9.355519,2.84785 z m 6.313877,-1.81198 c 0.494842,-0.85496 1.413861,-2.98402 2.042264,-4.73125 2.297144,-6.38704 6.563149,-10.53629 13.912139,-13.53139 2.36645,-0.96445 4.32571,-1.92391 4.35391,-2.13214 0.0282,-0.20823 0.11358,-1.75178 0.18974,-3.43011 0.47929,-10.56208 13.6691,-23.74083 26.77647,-26.75401 l 3.12599,-0.71862 -0.0615,-2.96932 C 138.56771,97.989293 121.02852,80.479992 105.80764,77.212732 66.125552,68.694712 38.365264,118.1145 64.353742,151.01035 c 7.276584,9.21059 21.867718,17.32968 24.127445,13.42546 z M 7.1435517,128.15802 c -5.6493171,-1.7257 -5.8650732,-10.50209 -0.3062238,-12.45636 2.2872151,-0.8041 21.6549231,-0.67029 24.1875251,0.16711 3.770462,1.24669 4.273478,10.70794 0.662547,12.46187 -1.001779,0.48659 -22.8897835,0.33266 -24.5438483,-0.17262 z M 31.933081,125.1501 c 3.275969,-6.80104 0.791686,-8.40969 -13.067682,-8.46174 -11.7543965,-0.0441 -14.6245522,0.95123 -14.6245522,5.07177 0,4.73372 1.28668,5.17783 15.0783012,5.20444 l 11.729026,0.0226 z M 146.1076,77.026088 c -0.8316,-1.052619 -1.99379,-2.100178 -2.58267,-2.327908 -4.23638,-1.638306 -1.11767,-9.362053 5.49975,-13.620584 1.1576,-0.744952 2.76525,-2.07278 3.57256,-2.950729 4.73628,-5.150697 11.18389,-8.397423 13.82764,-6.962978 8.44619,4.582722 6.61829,8.978825 -9.23381,22.207346 -7.11043,5.933633 -8.83413,6.502035 -11.08347,3.654853 z m 5.27806,-1.339201 c 1.14588,-0.725986 4.80951,-3.772136 11.38753,-9.468246 7.74406,-6.705811 8.8015,-9.77286 4.34152,-12.592298 -3.1615,-1.99859 -7.68577,0.02177 -13.86514,6.191651 -1.18538,1.18355 -2.88521,2.590376 -3.77741,3.12628 -4.77046,2.865403 -7.93026,8.647508 -5.4876,10.041753 0.96447,0.55051 2.30946,1.735359 2.98888,2.632999 1.30748,1.727435 1.78127,1.734722 4.41222,0.06786 z M 42.422581,76.775369 c -1.228067,-0.868356 -4.041458,-3.203013 -6.25198,-5.188126 -2.210521,-1.985112 -5.17463,-4.59786 -6.586907,-5.806105 -1.412278,-1.208246 -2.567778,-2.414326 -2.567778,-2.680179 0,-0.265853 -0.904304,-1.305398 -2.009565,-2.310101 -2.939318,-2.671895 0.372767,-9.742909 4.91227,-10.487267 4.291734,-0.703731 24.833801,17.378186 24.047145,21.16722 -1.027568,4.949421 -7.70546,8.018182 -11.543185,5.304558 z m 6.499478,-1.706727 C 53.975234,70.970186 53.53732,69.934603 42.84161,60.689547 30.941246,50.403223 29.700222,50.057056 26.008409,55.994156 l -1.230793,1.979336 2.196199,2.600287 c 2.13167,2.523886 3.468509,3.785471 10.983066,10.364807 7.30106,6.392408 7.898414,6.617403 10.965178,4.130056 z M 93.77813,54.164412 91.54528,53.220522 91.426292,38.785781 c -0.148113,-17.967887 -0.648933,-16.654667 6.35155,-16.654667 4.125288,0 5.274298,0.173629 5.611018,0.847893 0.50166,1.00456 0.58117,29.362194 0.0851,30.349815 -0.81722,1.626997 -6.637184,2.128563 -9.69582,0.83559 z m 8.42608,-1.814264 c 0.75032,-0.871735 0.59441,-27.640837 -0.16453,-28.250485 -0.854,-0.686 -6.749122,-0.717989 -8.149159,-0.04422 l -1.062178,0.511174 -0.115426,13.234802 c -0.125829,14.427545 -0.178471,14.107359 2.488015,15.132998 1.396661,0.537212 6.397068,0.120039 7.003278,-0.584269 z"
       id="path1" /></g></svg>
